PathFileType	4	(X/Y/Z)	10_2_56_p1_0-440.trc
DataRate	CameraRate	NumFrames	NumMarkers	Units	OrigDataRate	OrigDataStartFrame	OrigNumFrames
59.0	59.0	6	27	m	59.0	220	441
Frame#	Time	RHip			RKnee			RAnkle			RBigToe			RSmallToe			RHeel			LHip			LKnee			LAnkle			LBigToe			LSmallToe			LHeel			Neck			Head			Nose			RShoulder			RElbow			RWrist			RThumb			RIndex			RPinky			LShoulder			LElbow			LWrist			LThumb			LIndex			LPinky			
		X1	Y1	Z1	X2	Y2	Z2	X3	Y3	Z3	X4	Y4	Z4	X5	Y5	Z5	X6	Y6	Z6	X7	Y7	Z7	X8	Y8	Z8	X9	Y9	Z9	X10	Y10	Z10	X11	Y11	Z11	X12	Y12	Z12	X13	Y13	Z13	X14	Y14	Z14	X15	Y15	Z15	X16	Y16	Z16	X17	Y17	Z17	X18	Y18	Z18	X19	Y19	Z19	X20	Y20	Z20	X21	Y21	Z21	X22	Y22	Z22	X23	Y23	Z23	X24	Y24	Z24	X25	Y25	Z25	X26	Y26	Z26	X27	Y27	Z27	
220	3.7288135593220337	0.3037368490366688	0.5775822344795886	1.0322242894408875	0.3135494439083578	0.6532501140503109	1.4037248649108076	0.3179820270466997	0.8004866675226838	1.7760045115083285	0.27748554747942983	0.6080903987996386	1.8557262002387092	0.3546894347325114	0.6416237992939544	1.8494936095262882	0.2893847637259343	0.8848265690958789	1.8405565910517285	0.08614730931285715	0.5650155599138003	1.034685313339963	0.09601703951656447	0.6441071225617186	1.4136266896862162	0.0974914067675381	0.7589179484364426	1.7756294036277567	0.12870748255039446	0.602390105040219	1.865508140036417	0.06295905185556058	0.6227655292257551	1.8424500518502094	0.12225933831447962	0.8407010655299114	1.8249487942417135	0.19496245576805332	0.4445325542810284	0.46630296550516614	0.2178422093246661	0.2871972156727603	0.19939473840930985	0.21760489101529829	0.32439186111383567	0.39214097674363313	0.3675974583220139	0.464701781226816	0.52582901453712	0.48903049004808247	0.5146257084193906	0.7538228756738399	0.3400914606878266	0.44384548669823737	0.9348823429145474	0.2501142486568533	0.43910175508686966	0.939889513663965	0.23328530502679448	0.45369410942845406	0.9585230348443271	0.23000831161733398	0.431881125362378	0.9912628766003161	0.0517284287381204	0.4391984783615942	0.5259044874373189	-0.0671920695645777	0.4461532580729999	0.7910307387734646	0.06993798011158045	0.4081447418630973	0.9441008597548328	0.1744691487794916	0.3766471904639194	0.9707492128446028	0.1687692619479768	0.3851641021720953	1.0001591604867646	0.1453712528978772	0.4412686178580223	1.0138310694510193
221	3.7457627118644066	0.3044709425050418	0.5796957056186764	1.0367154484302041	0.31357076841832	0.653316842953806	1.40367953283502	0.3169681299871104	0.8022969201705878	1.7805924176986008	0.27797441547121005	0.6070090859165057	1.8597097363346002	0.34991711311194734	0.6583443697077056	1.8561988063875041	0.2890378558764371	0.8850929450059144	1.840882181980204	0.08990488908330443	0.5701392204659959	1.035670498289829	0.09643874412801177	0.6439202996843502	1.4053020115170112	0.097584656189374	0.7590774835000176	1.7756455424504898	0.12630118438100904	0.5881190288928991	1.860282159311809	0.0628617625986072	0.6226852718199536	1.842397570224265	0.12162265781737377	0.8421029418955381	1.8211728314784703	0.19491176057365908	0.44432478058265396	0.4663149169146431	0.2175686548256166	0.2856197167531106	0.19656903194159256	0.2176369726412056	0.3245240233654435	0.39221991336013706	0.3677771029279814	0.4673784653875096	0.525729963292717	0.4927739066501996	0.526606657981008	0.7538539112216149	0.34786518056175225	0.44257603810729595	0.93421722801202	0.24995005239949147	0.4369220432213023	0.9395536958629784	0.24487433363449476	0.4538918271570943	0.9614445915854	0.23910399629670517	0.44463005810507533	0.9886297929751086	0.04986888735658165	0.42657940275690365	0.5266882527510447	-0.06743842669919402	0.44608930159612403	0.7908927191212524	0.06358872117908385	0.39517793157988695	0.9466348750621393	0.17444979486403092	0.37748821041725517	0.971174544611017	0.16859925381926402	0.385026220924586	0.999693689056838	0.14558646578318277	0.44227316134669437	1.0204830954232522
222	3.76271186440678	0.30345919097306306	0.5818584103466162	1.0371660434793253	0.31317739867805605	0.654477910007598	1.400022787265456	0.31798727799628823	0.8006007823389529	1.7760438700855954	0.2737229116508883	0.6053773442848247	1.8597409421998679	0.3547305951161982	0.6424756695923673	1.849988791974252	0.2895503637485536	0.8852532785348445	1.8409921873677288	0.08360183516519075	0.5542236539017902	1.0343775310048138	0.09560274278047272	0.6452768256743519	1.4092717844547318	0.09756692403560913	0.7589816775373359	1.7755367481036641	0.12852101775235816	0.6024023790411912	1.8659695665564022	0.06299776188195993	0.6228570171670772	1.8426418618680431	0.12228269472059108	0.8407756043169308	1.8249049310979844	0.19481415476420477	0.4439789859463642	0.4664118904237711	0.21761132088092786	0.2856970245341559	0.1964642503708352	0.21992348027037856	0.3354369288318653	0.39112700202179035	0.3682379343051192	0.4670559356812012	0.529368693116175	0.4966855683217262	0.5282024832576058	0.753462778547371	0.3546337663096292	0.4542550300824938	0.9309765581279676	0.2622905635211041	0.4232151469964029	0.9299148322542181	0.2499599525069047	0.4403993443048398	0.951397493344627	0.24704477421588783	0.4557477595993176	0.9827714802419492	0.04980083916240354	0.42631404946425183	0.5266197611207865	-0.0718809870115483	0.443687517251557	0.7870917201571408	0.058584550895867206	0.4100159174891599	0.9485991537254881	0.16305277455790065	0.4033267331322085	0.977982450477311	0.15932947417537185	0.39718544021607416	1.001779383473848	0.14173314023528705	0.4408415711188865	1.0203924142700411
223	3.7796610169491527	0.302813767858787	0.5794324696522444	1.0327718487799784	0.31315731907387767	0.6545543922477975	1.4001166501219018	0.3180059779783956	0.8005186223386229	1.776017884737141	0.27370009532855555	0.6054318676592951	1.859632333653621	0.34544385633183294	0.6569308131598446	1.8561051173871324	0.28908946412647823	0.8866475404477814	1.8381981684941995	0.08600144621918734	0.5677219536356433	1.0358117042582229	0.09562221804299358	0.6454117912675135	1.4094076611889792	0.09760129794917981	0.7591090621714301	1.7757601742844162	0.1293541439527404	0.605781519251201	1.8713942506885621	0.06301493879739319	0.6230744127813831	1.8427961745816483	0.12236062024808611	0.8409664393135851	1.8251920518470548	0.1947285260725642	0.4433689061908036	0.466487460109606	0.21766410329388067	0.28560884784179164	0.1966116044132198	0.21998120071023877	0.33552703985202353	0.39121357581640653	0.36828984279648147	0.4669289166363832	0.5295493754662972	0.4971934741403904	0.5277574882205656	0.7569276595036243	0.3550398448229042	0.4549797439699347	0.9310256345909421	0.2650490501031972	0.421019043990906	0.9215848674577302	0.24944798863563797	0.4385943624906668	0.946891341870551	0.24743921696639154	0.45514263221700335	0.9827738322293275	0.05022962024033951	0.4279361336581988	0.5341277024444103	-0.08308069906633893	0.4400512288072671	0.7836568380262309	0.057368721995374176	0.40835048068354635	0.94043097072505	0.15560493474712897	0.4031062606896305	0.9787599138664802	0.15376469090419362	0.40943234330040945	1.0036275285536727	0.1327927725945823	0.45107539111831646	1.022108043203938
224	3.7966101694915255	0.302758443423418	0.5792444069906862	1.0326901423650587	0.31802021138476905	0.6547929824887727	1.4038409721811107	0.31801613359327435	0.8008468780017962	1.7759594081639782	0.2778502125678283	0.6070802385859534	1.8597024555170827	0.3497370801109725	0.6586105253124669	1.8560833020688043	0.2825763005053345	0.9042504447794781	1.8441875375485217	0.08603358156308465	0.5677695980008645	1.0355799570405444	0.0955485368379683	0.645446722620793	1.409237816175865	0.09560024492166394	0.7573053070716681	1.7755003054114318	0.12357053342203084	0.6015553740427647	1.8696079672977253	0.061501203796811434	0.6242862079455166	1.8473345285547	0.12034798768779663	0.8433347231763786	1.8266258434567073	0.19482775819740508	0.44289425285081047	0.46662623645911355	0.21775406580601614	0.285497999403293	0.196428039580753	0.21771381610912013	0.3244540073977041	0.39244580586730793	0.3682968254819873	0.46683795000521483	0.5294488011928923	0.4970447038782453	0.5284589628457863	0.7531599910306851	0.35977532589286787	0.4553163569692536	0.92670605392682	0.2736012097739275	0.4065342146689964	0.9159540296431259	0.2574936955699047	0.4365277368962716	0.9424000010023805	0.25289762725979587	0.4413388058641209	0.9775179524060404	0.049594817226419875	0.4270815103223354	0.5301825394830403	-0.08754197434297689	0.43500004684033905	0.7797679599302724	0.05647504288792259	0.40844016107486725	0.9438133910900012	0.14873078478485757	0.4146324381818919	0.9819556453904403	0.1482516814886164	0.4213128501611878	1.0053771914662797	0.13243698524369413	0.4508985274280556	1.0220610891324808
225	3.8135593220338984	0.3024356714467191	0.5777279820841791	1.028092452982194	0.31733888402844584	0.6523266875638589	1.399260721693711	0.31814211079381904	0.8008080237944525	1.7760236150971986	0.2778938237835071	0.6076170866601511	1.8603042950983602	0.3497220368111102	0.6593014763905678	1.8564247864562684	0.282795907656685	0.9048130511310309	1.844932904459545	0.08847067575709257	0.5658122175373348	1.0263509809046234	0.09494584850972239	0.6426159115952514	1.4043967398053177	0.09551626152355486	0.7573940526831369	1.7756559732779826	0.12309486270295594	0.5886592074972357	1.8651140701780915	0.06279293790741312	0.6223014030192415	1.8423489243155768	0.11411044759294386	0.860713379252906	1.832969239074515	0.1997254949648348	0.430320123093331	0.46719532389152835	0.21766606687133486	0.28511662436830165	0.1967962027068734	0.21758509322950523	0.3244300262094302	0.3924637670572371	0.3683156812839529	0.46669971155506446	0.529406507809598	0.4971997983295624	0.5285884309174292	0.7530181015375381	0.36854889275566327	0.4430315764611003	0.9251693067913964	0.2780694411220329	0.4125638128011493	0.9205861015704367	0.26680571679086273	0.4240468400289255	0.9441307419122885	0.26007565643387537	0.44140558058737145	0.9768416829440527	0.04969122654982372	0.4289072088899827	0.5340892643362775	-0.09495518732840154	0.4349895632997533	0.7800322792258676	0.051024067606862934	0.42294366672478106	0.9494590934371	0.14410468622746486	0.41458740798790733	0.9818536735730515	0.14148021386448442	0.4087757287251776	1.005020640932653	0.126016961068464	0.4367524881631242	1.0211291892800904
